<mxfile host="app.diagrams.net" modified="2024-01-19T13:47:46.847Z" agent="Mozilla/5.0 (X11; Linux x86_64; rv:122.0) Gecko/20100101 Firefox/122.0" etag="XKXIjwJyr0b8gq-ZFHR-" version="22.1.21" type="github">
  <diagram name="Page-1" id="IDM5P3fG-2-nEHwMohZi">
    <mxGraphModel dx="2284" dy="793" grid="0" gridSize="10" guides="1" tooltips="1" connect="1" arrows="1" fold="1" page="1" pageScale="1" pageWidth="850" pageHeight="1100" math="0" shadow="0">
      <root>
        <mxCell id="0" />
        <mxCell id="1" parent="0" />
        <mxCell id="UUwBOQ8jLMELF8BMp2JR-3" style="edgeStyle=orthogonalEdgeStyle;rounded=0;orthogonalLoop=1;jettySize=auto;html=1;exitX=0.25;exitY=1;exitDx=0;exitDy=0;entryX=0.5;entryY=0;entryDx=0;entryDy=0;" edge="1" parent="1" source="UUwBOQ8jLMELF8BMp2JR-1" target="UUwBOQ8jLMELF8BMp2JR-2">
          <mxGeometry relative="1" as="geometry" />
        </mxCell>
        <mxCell id="UUwBOQ8jLMELF8BMp2JR-5" style="edgeStyle=orthogonalEdgeStyle;rounded=0;orthogonalLoop=1;jettySize=auto;html=1;exitX=0.5;exitY=1;exitDx=0;exitDy=0;entryX=0.5;entryY=0;entryDx=0;entryDy=0;" edge="1" parent="1" source="UUwBOQ8jLMELF8BMp2JR-1" target="UUwBOQ8jLMELF8BMp2JR-4">
          <mxGeometry relative="1" as="geometry" />
        </mxCell>
        <mxCell id="UUwBOQ8jLMELF8BMp2JR-7" style="edgeStyle=orthogonalEdgeStyle;rounded=0;orthogonalLoop=1;jettySize=auto;html=1;exitX=1;exitY=0.5;exitDx=0;exitDy=0;entryX=0;entryY=0.5;entryDx=0;entryDy=0;" edge="1" parent="1" source="UUwBOQ8jLMELF8BMp2JR-1" target="UUwBOQ8jLMELF8BMp2JR-6">
          <mxGeometry relative="1" as="geometry" />
        </mxCell>
        <mxCell id="UUwBOQ8jLMELF8BMp2JR-1" value="&lt;div&gt;Admin&lt;/div&gt;" style="rounded=0;whiteSpace=wrap;html=1;" vertex="1" parent="1">
          <mxGeometry x="-20" y="250" width="120" height="60" as="geometry" />
        </mxCell>
        <mxCell id="UUwBOQ8jLMELF8BMp2JR-2" value="Id" style="ellipse;whiteSpace=wrap;html=1;" vertex="1" parent="1">
          <mxGeometry x="-40" y="350" width="60" height="30" as="geometry" />
        </mxCell>
        <mxCell id="UUwBOQ8jLMELF8BMp2JR-4" value="&lt;div&gt;password&lt;/div&gt;" style="ellipse;whiteSpace=wrap;html=1;" vertex="1" parent="1">
          <mxGeometry x="60" y="350" width="60" height="30" as="geometry" />
        </mxCell>
        <mxCell id="UUwBOQ8jLMELF8BMp2JR-8" style="edgeStyle=orthogonalEdgeStyle;rounded=0;orthogonalLoop=1;jettySize=auto;html=1;exitX=1;exitY=0.5;exitDx=0;exitDy=0;entryX=0;entryY=0.5;entryDx=0;entryDy=0;" edge="1" parent="1" source="UUwBOQ8jLMELF8BMp2JR-6" target="UUwBOQ8jLMELF8BMp2JR-9">
          <mxGeometry relative="1" as="geometry">
            <mxPoint x="270" y="310" as="targetPoint" />
          </mxGeometry>
        </mxCell>
        <mxCell id="UUwBOQ8jLMELF8BMp2JR-6" value="&lt;div&gt;Add&lt;/div&gt;&lt;div&gt;/&lt;/div&gt;&lt;div&gt;View&lt;br&gt;&lt;/div&gt;" style="rhombus;whiteSpace=wrap;html=1;" vertex="1" parent="1">
          <mxGeometry x="130" y="270" width="80" height="80" as="geometry" />
        </mxCell>
        <mxCell id="UUwBOQ8jLMELF8BMp2JR-19" style="edgeStyle=orthogonalEdgeStyle;rounded=0;orthogonalLoop=1;jettySize=auto;html=1;exitX=0.5;exitY=0;exitDx=0;exitDy=0;entryX=0.5;entryY=1;entryDx=0;entryDy=0;" edge="1" parent="1" source="UUwBOQ8jLMELF8BMp2JR-9" target="UUwBOQ8jLMELF8BMp2JR-14">
          <mxGeometry relative="1" as="geometry" />
        </mxCell>
        <mxCell id="UUwBOQ8jLMELF8BMp2JR-24" style="edgeStyle=orthogonalEdgeStyle;rounded=0;orthogonalLoop=1;jettySize=auto;html=1;exitX=0.25;exitY=1;exitDx=0;exitDy=0;entryX=0.5;entryY=0;entryDx=0;entryDy=0;" edge="1" parent="1" source="UUwBOQ8jLMELF8BMp2JR-9" target="UUwBOQ8jLMELF8BMp2JR-10">
          <mxGeometry relative="1" as="geometry" />
        </mxCell>
        <mxCell id="UUwBOQ8jLMELF8BMp2JR-25" style="edgeStyle=orthogonalEdgeStyle;rounded=0;orthogonalLoop=1;jettySize=auto;html=1;exitX=0.5;exitY=1;exitDx=0;exitDy=0;entryX=0.5;entryY=0;entryDx=0;entryDy=0;" edge="1" parent="1" source="UUwBOQ8jLMELF8BMp2JR-9" target="UUwBOQ8jLMELF8BMp2JR-12">
          <mxGeometry relative="1" as="geometry" />
        </mxCell>
        <mxCell id="UUwBOQ8jLMELF8BMp2JR-26" style="edgeStyle=orthogonalEdgeStyle;rounded=0;orthogonalLoop=1;jettySize=auto;html=1;exitX=0.75;exitY=1;exitDx=0;exitDy=0;" edge="1" parent="1" source="UUwBOQ8jLMELF8BMp2JR-9" target="UUwBOQ8jLMELF8BMp2JR-13">
          <mxGeometry relative="1" as="geometry" />
        </mxCell>
        <mxCell id="UUwBOQ8jLMELF8BMp2JR-28" value="" style="edgeStyle=orthogonalEdgeStyle;rounded=0;orthogonalLoop=1;jettySize=auto;html=1;" edge="1" parent="1" source="UUwBOQ8jLMELF8BMp2JR-9" target="UUwBOQ8jLMELF8BMp2JR-27">
          <mxGeometry relative="1" as="geometry" />
        </mxCell>
        <mxCell id="UUwBOQ8jLMELF8BMp2JR-31" value="" style="edgeStyle=orthogonalEdgeStyle;rounded=0;orthogonalLoop=1;jettySize=auto;html=1;" edge="1" parent="1" source="UUwBOQ8jLMELF8BMp2JR-9" target="UUwBOQ8jLMELF8BMp2JR-13">
          <mxGeometry relative="1" as="geometry" />
        </mxCell>
        <mxCell id="UUwBOQ8jLMELF8BMp2JR-32" value="" style="edgeStyle=orthogonalEdgeStyle;rounded=0;orthogonalLoop=1;jettySize=auto;html=1;" edge="1" parent="1" source="UUwBOQ8jLMELF8BMp2JR-9" target="UUwBOQ8jLMELF8BMp2JR-12">
          <mxGeometry relative="1" as="geometry" />
        </mxCell>
        <mxCell id="UUwBOQ8jLMELF8BMp2JR-33" value="" style="edgeStyle=orthogonalEdgeStyle;rounded=0;orthogonalLoop=1;jettySize=auto;html=1;" edge="1" parent="1" source="UUwBOQ8jLMELF8BMp2JR-9" target="UUwBOQ8jLMELF8BMp2JR-12">
          <mxGeometry relative="1" as="geometry" />
        </mxCell>
        <mxCell id="UUwBOQ8jLMELF8BMp2JR-36" style="edgeStyle=orthogonalEdgeStyle;rounded=0;orthogonalLoop=1;jettySize=auto;html=1;exitX=0.5;exitY=1;exitDx=0;exitDy=0;" edge="1" parent="1" source="UUwBOQ8jLMELF8BMp2JR-9" target="UUwBOQ8jLMELF8BMp2JR-35">
          <mxGeometry relative="1" as="geometry" />
        </mxCell>
        <mxCell id="UUwBOQ8jLMELF8BMp2JR-38" style="edgeStyle=orthogonalEdgeStyle;rounded=0;orthogonalLoop=1;jettySize=auto;html=1;exitX=0.5;exitY=1;exitDx=0;exitDy=0;entryX=0.5;entryY=0;entryDx=0;entryDy=0;" edge="1" parent="1" source="UUwBOQ8jLMELF8BMp2JR-9" target="UUwBOQ8jLMELF8BMp2JR-39">
          <mxGeometry relative="1" as="geometry">
            <mxPoint x="210" y="490" as="targetPoint" />
          </mxGeometry>
        </mxCell>
        <mxCell id="UUwBOQ8jLMELF8BMp2JR-9" value="Student" style="rounded=0;whiteSpace=wrap;html=1;" vertex="1" parent="1">
          <mxGeometry x="270" y="280" width="120" height="60" as="geometry" />
        </mxCell>
        <mxCell id="UUwBOQ8jLMELF8BMp2JR-10" value="Name" style="ellipse;whiteSpace=wrap;html=1;" vertex="1" parent="1">
          <mxGeometry x="190" y="370" width="80" height="40" as="geometry" />
        </mxCell>
        <mxCell id="UUwBOQ8jLMELF8BMp2JR-12" value="DOB" style="ellipse;whiteSpace=wrap;html=1;" vertex="1" parent="1">
          <mxGeometry x="360" y="430" width="80" height="40" as="geometry" />
        </mxCell>
        <mxCell id="UUwBOQ8jLMELF8BMp2JR-13" value="Email" style="ellipse;whiteSpace=wrap;html=1;" vertex="1" parent="1">
          <mxGeometry x="410" y="390" width="80" height="40" as="geometry" />
        </mxCell>
        <mxCell id="UUwBOQ8jLMELF8BMp2JR-20" style="edgeStyle=orthogonalEdgeStyle;rounded=0;orthogonalLoop=1;jettySize=auto;html=1;exitX=0.5;exitY=0;exitDx=0;exitDy=0;entryX=0.5;entryY=1;entryDx=0;entryDy=0;" edge="1" parent="1" source="UUwBOQ8jLMELF8BMp2JR-14" target="UUwBOQ8jLMELF8BMp2JR-16">
          <mxGeometry relative="1" as="geometry" />
        </mxCell>
        <mxCell id="UUwBOQ8jLMELF8BMp2JR-22" style="edgeStyle=orthogonalEdgeStyle;rounded=0;orthogonalLoop=1;jettySize=auto;html=1;exitX=0;exitY=0;exitDx=0;exitDy=0;entryX=0.5;entryY=1;entryDx=0;entryDy=0;" edge="1" parent="1" source="UUwBOQ8jLMELF8BMp2JR-14" target="UUwBOQ8jLMELF8BMp2JR-15">
          <mxGeometry relative="1" as="geometry" />
        </mxCell>
        <mxCell id="UUwBOQ8jLMELF8BMp2JR-14" value="Col_info" style="ellipse;whiteSpace=wrap;html=1;" vertex="1" parent="1">
          <mxGeometry x="290" y="200" width="80" height="40" as="geometry" />
        </mxCell>
        <mxCell id="UUwBOQ8jLMELF8BMp2JR-15" value="Sem" style="ellipse;whiteSpace=wrap;html=1;" vertex="1" parent="1">
          <mxGeometry x="210" y="130" width="80" height="40" as="geometry" />
        </mxCell>
        <mxCell id="UUwBOQ8jLMELF8BMp2JR-16" value="Disciplie" style="ellipse;whiteSpace=wrap;html=1;" vertex="1" parent="1">
          <mxGeometry x="290" y="120" width="80" height="40" as="geometry" />
        </mxCell>
        <mxCell id="UUwBOQ8jLMELF8BMp2JR-17" value="Collage Name" style="ellipse;whiteSpace=wrap;html=1;" vertex="1" parent="1">
          <mxGeometry x="380" y="130" width="80" height="40" as="geometry" />
        </mxCell>
        <mxCell id="UUwBOQ8jLMELF8BMp2JR-21" style="edgeStyle=orthogonalEdgeStyle;rounded=0;orthogonalLoop=1;jettySize=auto;html=1;exitX=1;exitY=0;exitDx=0;exitDy=0;entryX=0.275;entryY=1.025;entryDx=0;entryDy=0;entryPerimeter=0;" edge="1" parent="1" source="UUwBOQ8jLMELF8BMp2JR-14" target="UUwBOQ8jLMELF8BMp2JR-17">
          <mxGeometry relative="1" as="geometry" />
        </mxCell>
        <mxCell id="UUwBOQ8jLMELF8BMp2JR-30" value="" style="edgeStyle=orthogonalEdgeStyle;rounded=0;orthogonalLoop=1;jettySize=auto;html=1;" edge="1" parent="1" source="UUwBOQ8jLMELF8BMp2JR-27" target="UUwBOQ8jLMELF8BMp2JR-29">
          <mxGeometry relative="1" as="geometry" />
        </mxCell>
        <mxCell id="UUwBOQ8jLMELF8BMp2JR-27" value="login" style="rhombus;whiteSpace=wrap;html=1;rounded=0;" vertex="1" parent="1">
          <mxGeometry x="490" y="270" width="80" height="80" as="geometry" />
        </mxCell>
        <mxCell id="UUwBOQ8jLMELF8BMp2JR-47" value="" style="edgeStyle=orthogonalEdgeStyle;rounded=0;orthogonalLoop=1;jettySize=auto;html=1;" edge="1" parent="1" target="UUwBOQ8jLMELF8BMp2JR-46">
          <mxGeometry relative="1" as="geometry">
            <mxPoint x="730" y="305" as="sourcePoint" />
          </mxGeometry>
        </mxCell>
        <mxCell id="UUwBOQ8jLMELF8BMp2JR-51" style="edgeStyle=orthogonalEdgeStyle;rounded=0;orthogonalLoop=1;jettySize=auto;html=1;exitX=1;exitY=0.75;exitDx=0;exitDy=0;entryX=0.5;entryY=0;entryDx=0;entryDy=0;" edge="1" parent="1" target="UUwBOQ8jLMELF8BMp2JR-48">
          <mxGeometry relative="1" as="geometry">
            <mxPoint x="730" y="320" as="sourcePoint" />
          </mxGeometry>
        </mxCell>
        <mxCell id="UUwBOQ8jLMELF8BMp2JR-56" value="" style="edgeStyle=orthogonalEdgeStyle;rounded=0;orthogonalLoop=1;jettySize=auto;html=1;" edge="1" parent="1" source="UUwBOQ8jLMELF8BMp2JR-29" target="UUwBOQ8jLMELF8BMp2JR-55">
          <mxGeometry relative="1" as="geometry" />
        </mxCell>
        <mxCell id="UUwBOQ8jLMELF8BMp2JR-29" value="DashBoard" style="whiteSpace=wrap;html=1;rounded=0;" vertex="1" parent="1">
          <mxGeometry x="610" y="280" width="120" height="60" as="geometry" />
        </mxCell>
        <mxCell id="UUwBOQ8jLMELF8BMp2JR-37" style="edgeStyle=orthogonalEdgeStyle;rounded=0;orthogonalLoop=1;jettySize=auto;html=1;exitX=0.5;exitY=1;exitDx=0;exitDy=0;entryX=0.5;entryY=1;entryDx=0;entryDy=0;" edge="1" parent="1" source="UUwBOQ8jLMELF8BMp2JR-35" target="UUwBOQ8jLMELF8BMp2JR-27">
          <mxGeometry relative="1" as="geometry" />
        </mxCell>
        <mxCell id="UUwBOQ8jLMELF8BMp2JR-35" value="&lt;div&gt;student_id&lt;/div&gt;" style="ellipse;whiteSpace=wrap;html=1;" vertex="1" parent="1">
          <mxGeometry x="270" y="430" width="80" height="40" as="geometry" />
        </mxCell>
        <mxCell id="UUwBOQ8jLMELF8BMp2JR-40" style="edgeStyle=orthogonalEdgeStyle;rounded=0;orthogonalLoop=1;jettySize=auto;html=1;exitX=0.5;exitY=1;exitDx=0;exitDy=0;" edge="1" parent="1" source="UUwBOQ8jLMELF8BMp2JR-39" target="UUwBOQ8jLMELF8BMp2JR-27">
          <mxGeometry relative="1" as="geometry" />
        </mxCell>
        <mxCell id="UUwBOQ8jLMELF8BMp2JR-39" value="&lt;div&gt;Password&lt;/div&gt;" style="ellipse;whiteSpace=wrap;html=1;" vertex="1" parent="1">
          <mxGeometry x="200" y="490" width="110" height="30" as="geometry" />
        </mxCell>
        <mxCell id="UUwBOQ8jLMELF8BMp2JR-43" value="" style="edgeStyle=orthogonalEdgeStyle;rounded=0;orthogonalLoop=1;jettySize=auto;html=1;entryX=0.5;entryY=0;entryDx=0;entryDy=0;" edge="1" parent="1" source="UUwBOQ8jLMELF8BMp2JR-41" target="UUwBOQ8jLMELF8BMp2JR-29">
          <mxGeometry relative="1" as="geometry">
            <mxPoint x="650" y="190" as="targetPoint" />
          </mxGeometry>
        </mxCell>
        <mxCell id="UUwBOQ8jLMELF8BMp2JR-41" value="Content" style="shape=cylinder3;whiteSpace=wrap;html=1;boundedLbl=1;backgroundOutline=1;size=9.8333333333334;" vertex="1" parent="1">
          <mxGeometry x="640" y="20" width="60" height="80" as="geometry" />
        </mxCell>
        <mxCell id="UUwBOQ8jLMELF8BMp2JR-46" value="Assignment" style="ellipse;whiteSpace=wrap;html=1;rounded=0;" vertex="1" parent="1">
          <mxGeometry x="790" y="225" width="120" height="50" as="geometry" />
        </mxCell>
        <mxCell id="UUwBOQ8jLMELF8BMp2JR-48" value="Video" style="ellipse;whiteSpace=wrap;html=1;rounded=0;" vertex="1" parent="1">
          <mxGeometry x="720" y="385" width="120" height="50" as="geometry" />
        </mxCell>
        <mxCell id="UUwBOQ8jLMELF8BMp2JR-49" value="Tests" style="ellipse;whiteSpace=wrap;html=1;rounded=0;" vertex="1" parent="1">
          <mxGeometry x="870" y="300" width="120" height="50" as="geometry" />
        </mxCell>
        <mxCell id="UUwBOQ8jLMELF8BMp2JR-52" style="edgeStyle=orthogonalEdgeStyle;rounded=0;orthogonalLoop=1;jettySize=auto;html=1;exitX=1;exitY=1;exitDx=0;exitDy=0;entryX=0.007;entryY=0.38;entryDx=0;entryDy=0;entryPerimeter=0;" edge="1" parent="1" target="UUwBOQ8jLMELF8BMp2JR-49">
          <mxGeometry relative="1" as="geometry">
            <mxPoint x="730" y="335" as="sourcePoint" />
          </mxGeometry>
        </mxCell>
        <mxCell id="UUwBOQ8jLMELF8BMp2JR-58" value="" style="edgeStyle=orthogonalEdgeStyle;rounded=0;orthogonalLoop=1;jettySize=auto;html=1;" edge="1" parent="1" source="UUwBOQ8jLMELF8BMp2JR-55" target="UUwBOQ8jLMELF8BMp2JR-57">
          <mxGeometry relative="1" as="geometry" />
        </mxCell>
        <mxCell id="UUwBOQ8jLMELF8BMp2JR-55" value="Payment" style="rhombus;whiteSpace=wrap;html=1;rounded=0;" vertex="1" parent="1">
          <mxGeometry x="728" y="113" width="80" height="80" as="geometry" />
        </mxCell>
        <mxCell id="UUwBOQ8jLMELF8BMp2JR-57" value="payment portal" style="whiteSpace=wrap;html=1;rounded=0;" vertex="1" parent="1">
          <mxGeometry x="858" y="123" width="120" height="60" as="geometry" />
        </mxCell>
      </root>
    </mxGraphModel>
  </diagram>
</mxfile>
